<mxfile host="app.diagrams.net" modified="2022-09-29T23:01:57.874Z" agent="5.0 (Windows NT 10.0; Win64; x64) AppleWebKit/537.36 (KHTML, like Gecko) Chrome/105.0.0.0 Safari/537.36 Edg/105.0.1343.53" etag="mHSGiPV94N30P1kgdSYO" version="20.3.7" type="github">
  <diagram id="W8bVrdwObkEjIYH_i07z" name="Página-1">
    <mxGraphModel dx="918" dy="543" grid="1" gridSize="10" guides="1" tooltips="1" connect="1" arrows="1" fold="1" page="1" pageScale="1" pageWidth="827" pageHeight="1169" math="0" shadow="0">
      <root>
        <mxCell id="0" />
        <mxCell id="1" parent="0" />
        <mxCell id="ObyGoCdd3EivCFjjYp79-38" style="rounded=0;orthogonalLoop=1;jettySize=auto;html=1;exitX=0.5;exitY=0.5;exitDx=0;exitDy=0;exitPerimeter=0;strokeColor=#000000;" edge="1" parent="1" source="ObyGoCdd3EivCFjjYp79-36">
          <mxGeometry relative="1" as="geometry">
            <mxPoint x="160" y="390" as="targetPoint" />
            <Array as="points">
              <mxPoint x="90" y="410" />
            </Array>
          </mxGeometry>
        </mxCell>
        <mxCell id="ObyGoCdd3EivCFjjYp79-43" style="edgeStyle=none;rounded=0;orthogonalLoop=1;jettySize=auto;html=1;exitX=0.5;exitY=0.5;exitDx=0;exitDy=0;exitPerimeter=0;strokeColor=#000000;" edge="1" parent="1" source="ObyGoCdd3EivCFjjYp79-36">
          <mxGeometry relative="1" as="geometry">
            <mxPoint x="140" y="460" as="targetPoint" />
          </mxGeometry>
        </mxCell>
        <mxCell id="ObyGoCdd3EivCFjjYp79-79" style="edgeStyle=none;rounded=0;orthogonalLoop=1;jettySize=auto;html=1;exitX=0.5;exitY=0.5;exitDx=0;exitDy=0;exitPerimeter=0;strokeColor=#000000;" edge="1" parent="1" source="ObyGoCdd3EivCFjjYp79-36">
          <mxGeometry relative="1" as="geometry">
            <mxPoint x="150" y="510" as="targetPoint" />
          </mxGeometry>
        </mxCell>
        <mxCell id="ObyGoCdd3EivCFjjYp79-80" style="edgeStyle=none;rounded=0;orthogonalLoop=1;jettySize=auto;html=1;exitX=0.5;exitY=0.5;exitDx=0;exitDy=0;exitPerimeter=0;strokeColor=#000000;" edge="1" parent="1" source="ObyGoCdd3EivCFjjYp79-36">
          <mxGeometry relative="1" as="geometry">
            <mxPoint x="150" y="560" as="targetPoint" />
            <Array as="points">
              <mxPoint x="110" y="510" />
            </Array>
          </mxGeometry>
        </mxCell>
        <mxCell id="ObyGoCdd3EivCFjjYp79-36" value="Administrador" style="shape=umlActor;verticalLabelPosition=bottom;verticalAlign=top;html=1;outlineConnect=0;" vertex="1" parent="1">
          <mxGeometry x="30" y="410" width="30" height="60" as="geometry" />
        </mxCell>
        <mxCell id="ObyGoCdd3EivCFjjYp79-75" style="edgeStyle=none;rounded=0;orthogonalLoop=1;jettySize=auto;html=1;exitX=0.75;exitY=0.1;exitDx=0;exitDy=0;exitPerimeter=0;strokeColor=#000000;" edge="1" parent="1" source="ObyGoCdd3EivCFjjYp79-37" target="ObyGoCdd3EivCFjjYp79-72">
          <mxGeometry relative="1" as="geometry" />
        </mxCell>
        <mxCell id="ObyGoCdd3EivCFjjYp79-76" style="edgeStyle=none;rounded=0;orthogonalLoop=1;jettySize=auto;html=1;exitX=0.75;exitY=0.1;exitDx=0;exitDy=0;exitPerimeter=0;entryX=0;entryY=0.5;entryDx=0;entryDy=0;strokeColor=#000000;" edge="1" parent="1" source="ObyGoCdd3EivCFjjYp79-37" target="ObyGoCdd3EivCFjjYp79-61">
          <mxGeometry relative="1" as="geometry" />
        </mxCell>
        <mxCell id="ObyGoCdd3EivCFjjYp79-77" style="edgeStyle=none;rounded=0;orthogonalLoop=1;jettySize=auto;html=1;exitX=0.75;exitY=0.1;exitDx=0;exitDy=0;exitPerimeter=0;entryX=0;entryY=0.5;entryDx=0;entryDy=0;strokeColor=#000000;" edge="1" parent="1" source="ObyGoCdd3EivCFjjYp79-37" target="ObyGoCdd3EivCFjjYp79-62">
          <mxGeometry relative="1" as="geometry" />
        </mxCell>
        <mxCell id="ObyGoCdd3EivCFjjYp79-78" style="edgeStyle=none;rounded=0;orthogonalLoop=1;jettySize=auto;html=1;exitX=0.75;exitY=0.1;exitDx=0;exitDy=0;exitPerimeter=0;entryX=0;entryY=0.429;entryDx=0;entryDy=0;entryPerimeter=0;strokeColor=#000000;" edge="1" parent="1" source="ObyGoCdd3EivCFjjYp79-37" target="ObyGoCdd3EivCFjjYp79-63">
          <mxGeometry relative="1" as="geometry" />
        </mxCell>
        <mxCell id="ObyGoCdd3EivCFjjYp79-81" style="edgeStyle=none;rounded=0;orthogonalLoop=1;jettySize=auto;html=1;exitX=0.75;exitY=0.1;exitDx=0;exitDy=0;exitPerimeter=0;strokeColor=#000000;" edge="1" parent="1" source="ObyGoCdd3EivCFjjYp79-37">
          <mxGeometry relative="1" as="geometry">
            <mxPoint x="180" y="360" as="targetPoint" />
          </mxGeometry>
        </mxCell>
        <mxCell id="ObyGoCdd3EivCFjjYp79-37" value="Funcionário" style="shape=umlActor;verticalLabelPosition=bottom;verticalAlign=top;html=1;outlineConnect=0;" vertex="1" parent="1">
          <mxGeometry x="20" y="200" width="30" height="60" as="geometry" />
        </mxCell>
        <mxCell id="ObyGoCdd3EivCFjjYp79-45" value="Cadastrar funcionários" style="ellipse;whiteSpace=wrap;html=1;" vertex="1" parent="1">
          <mxGeometry x="160" y="440" width="75" height="50" as="geometry" />
        </mxCell>
        <mxCell id="ObyGoCdd3EivCFjjYp79-46" value="Cadastrar frota" style="ellipse;whiteSpace=wrap;html=1;" vertex="1" parent="1">
          <mxGeometry x="160" y="500" width="75" height="50" as="geometry" />
        </mxCell>
        <mxCell id="ObyGoCdd3EivCFjjYp79-47" value="Cadastrar produtos" style="ellipse;whiteSpace=wrap;html=1;" vertex="1" parent="1">
          <mxGeometry x="160" y="560" width="75" height="50" as="geometry" />
        </mxCell>
        <mxCell id="ObyGoCdd3EivCFjjYp79-53" value="Login" style="ellipse;whiteSpace=wrap;html=1;" vertex="1" parent="1">
          <mxGeometry x="175" y="370" width="45" height="30" as="geometry" />
        </mxCell>
        <mxCell id="ObyGoCdd3EivCFjjYp79-70" style="edgeStyle=none;rounded=0;orthogonalLoop=1;jettySize=auto;html=1;exitX=1;exitY=0.5;exitDx=0;exitDy=0;strokeColor=#000000;" edge="1" parent="1" source="ObyGoCdd3EivCFjjYp79-61">
          <mxGeometry relative="1" as="geometry">
            <mxPoint x="440" y="300" as="targetPoint" />
          </mxGeometry>
        </mxCell>
        <mxCell id="ObyGoCdd3EivCFjjYp79-61" value="Visualizar/editar&lt;br&gt;funcionários" style="ellipse;whiteSpace=wrap;html=1;" vertex="1" parent="1">
          <mxGeometry x="270" y="205" width="105" height="70" as="geometry" />
        </mxCell>
        <mxCell id="ObyGoCdd3EivCFjjYp79-69" style="edgeStyle=none;rounded=0;orthogonalLoop=1;jettySize=auto;html=1;exitX=1;exitY=0.5;exitDx=0;exitDy=0;entryX=0;entryY=0.5;entryDx=0;entryDy=0;strokeColor=#000000;" edge="1" parent="1" source="ObyGoCdd3EivCFjjYp79-62" target="ObyGoCdd3EivCFjjYp79-68">
          <mxGeometry relative="1" as="geometry" />
        </mxCell>
        <mxCell id="ObyGoCdd3EivCFjjYp79-71" style="edgeStyle=none;rounded=0;orthogonalLoop=1;jettySize=auto;html=1;exitX=1;exitY=1;exitDx=0;exitDy=0;strokeColor=#000000;" edge="1" parent="1" source="ObyGoCdd3EivCFjjYp79-62">
          <mxGeometry relative="1" as="geometry">
            <mxPoint x="440" y="330" as="targetPoint" />
          </mxGeometry>
        </mxCell>
        <mxCell id="ObyGoCdd3EivCFjjYp79-62" value="Visualizar/editar&lt;br&gt;frota" style="ellipse;whiteSpace=wrap;html=1;" vertex="1" parent="1">
          <mxGeometry x="270" y="280" width="105" height="70" as="geometry" />
        </mxCell>
        <mxCell id="ObyGoCdd3EivCFjjYp79-63" value="Visualizar/editar&lt;br&gt;produtos" style="ellipse;whiteSpace=wrap;html=1;" vertex="1" parent="1">
          <mxGeometry x="270" y="360" width="105" height="70" as="geometry" />
        </mxCell>
        <mxCell id="ObyGoCdd3EivCFjjYp79-68" value="Alertar mudanças críticas" style="ellipse;whiteSpace=wrap;html=1;" vertex="1" parent="1">
          <mxGeometry x="450" y="287.5" width="120" height="55" as="geometry" />
        </mxCell>
        <mxCell id="ObyGoCdd3EivCFjjYp79-72" value="Visualizar status veículos" style="ellipse;whiteSpace=wrap;html=1;" vertex="1" parent="1">
          <mxGeometry x="270" y="130" width="105" height="70" as="geometry" />
        </mxCell>
        <mxCell id="ObyGoCdd3EivCFjjYp79-74" style="edgeStyle=none;rounded=0;orthogonalLoop=1;jettySize=auto;html=1;exitX=0;exitY=1;exitDx=0;exitDy=0;dashed=1;strokeColor=#000000;" edge="1" parent="1" source="ObyGoCdd3EivCFjjYp79-63" target="ObyGoCdd3EivCFjjYp79-63">
          <mxGeometry relative="1" as="geometry" />
        </mxCell>
      </root>
    </mxGraphModel>
  </diagram>
</mxfile>
